<svg height="512" viewBox="0 0 256 256" width="512" xmlns="http://www.w3.org/2000/svg"><rect fill="#cecece" height="151.106" rx="13.665" width="219.26" x="18.37" y="50.711"/><path d="m28.37 188.153v-123.777a13.681 13.681 0 0 1 13.665-13.665h-10a13.681 13.681 0 0 0 -13.665 13.665v123.777a13.681 13.681 0 0 0 13.665 13.665h10a13.681 13.681 0 0 1 -13.665-13.665z" fill="#afafaf"/><path d="m227.63 188.153v-123.777a13.681 13.681 0 0 0 -13.665-13.665h10a13.681 13.681 0 0 1 13.665 13.665v123.777a13.681 13.681 0 0 1 -13.665 13.665h-10a13.681 13.681 0 0 0 13.665-13.665z" fill="#e2e2e2"/><rect fill="#63bce7" height="122.288" rx="5.256" width="202.442" x="26.779" y="59.12"/><path d="m36.779 176.153v-111.777a5.271 5.271 0 0 1 5.256-5.256h-10a5.271 5.271 0 0 0 -5.256 5.256v111.777a5.271 5.271 0 0 0 5.256 5.256h10a5.271 5.271 0 0 1 -5.256-5.256z" fill="#6377e7"/><path d="m219.221 176.153v-111.777a5.271 5.271 0 0 0 -5.256-5.256h10a5.271 5.271 0 0 1 5.256 5.256v111.777a5.271 5.271 0 0 1 -5.256 5.256h-10a5.271 5.271 0 0 0 5.256-5.256z" fill="#63e2e7"/><path d="m89.809 223.975h76.383v9.197h-76.383z" fill="#9e9e9e"/><path d="m89.809 223.975h10v9.197h-10z" fill="#707070"/><path d="m100.67 201.817h54.659v22.158h-54.659z" fill="#cecece"/><path d="m100.67 201.817h10v22.158h-10z" fill="#afafaf"/><circle cx="128" cy="191.613" fill="#9e9e9e" r="4.5"/><rect fill="#cecece" height="132.343" rx="10.6" width="154.485" x="50.757" y="11.854"/><path d="m60.757 133.6v-111.146a10.6 10.6 0 0 1 10.6-10.6h-10a10.6 10.6 0 0 0 -10.6 10.6v111.146a10.6 10.6 0 0 0 10.6 10.6h10a10.6 10.6 0 0 1 -10.6-10.6z" fill="#afafaf"/><path d="m195.243 133.6v-111.146a10.6 10.6 0 0 0 -10.6-10.6h10a10.6 10.6 0 0 1 10.6 10.6v111.146a10.6 10.6 0 0 1 -10.6 10.6h-10a10.6 10.6 0 0 0 10.6-10.6z" fill="#e2e2e2"/><path d="m205.242 22.456a10.6 10.6 0 0 0 -10.6-10.6h-133.283a10.6 10.6 0 0 0 -10.6 10.6v18.449h154.483z" fill="#f8af23"/><path d="m71.359 11.854h-10a10.6 10.6 0 0 0 -10.6 10.6v18.451h10v-18.449a10.6 10.6 0 0 1 10.6-10.602z" fill="#f87023"/><path d="m184.641 11.854h10a10.6 10.6 0 0 1 10.6 10.6v18.451h-10v-18.449a10.6 10.6 0 0 0 -10.6-10.602z" fill="#f8d323"/><circle cx="69.682" cy="26.38" fill="#f46275" r="4.842"/><circle cx="88.332" cy="26.38" fill="#f46275" r="4.842"/><circle cx="106.981" cy="26.38" fill="#f46275" r="4.842"/><rect fill="#f46275" height="7.378" rx="3.689" width="68.643" x="122.517" y="23.008"/><rect fill="#9e9e9e" height="63.916" rx="22.917" width="45.833" x="105.083" y="65.803"/><g fill="#3f3679"><path d="m128 197.613a6 6 0 1 0 -6-6 6.007 6.007 0 0 0 6 6zm0-9a3 3 0 1 1 -3 3 3 3 0 0 1 3-3z"/><path d="m27.323 242.646h-18a1.5 1.5 0 1 0 0 3h18a1.5 1.5 0 1 0 0-3z"/><path d="m246.68 242.646h-18a1.5 1.5 0 0 0 0 3h18a1.5 1.5 0 0 0 0-3z"/><path d="m218.479 242.646h-180.958a1.5 1.5 0 0 0 0 3h180.958a1.5 1.5 0 0 0 0-3z"/><path d="m9.32 234.673h237.36a1.5 1.5 0 0 0 0-3h-78.989v-7.7a1.5 1.5 0 0 0 -1.5-1.5h-9.362v-19.156h67.137a15.182 15.182 0 0 0 15.164-15.165v-123.776a15.182 15.182 0 0 0 -15.164-15.165h-17.224v-26.757a12.113 12.113 0 0 0 -12.1-12.1h-133.285a12.114 12.114 0 0 0 -12.1 12.1v26.757h-17.222a15.182 15.182 0 0 0 -15.165 15.165v123.776a15.182 15.182 0 0 0 15.165 15.165h67.135v19.158h-9.361a1.5 1.5 0 0 0 -1.5 1.5v7.7h-78.989a1.5 1.5 0 1 0 0 3zm42.937-192.268h151.485v91.195a9.11 9.11 0 0 1 -9.1 9.1h-133.285a9.111 9.111 0 0 1 -9.1-9.1zm9.1 103.292h133.286a12.114 12.114 0 0 0 12.1-12.1v-72.977h17.224a3.76 3.76 0 0 1 3.755 3.756v111.776a3.76 3.76 0 0 1 -3.755 3.756h-191.932a3.76 3.76 0 0 1 -3.756-3.756v-111.776a3.76 3.76 0 0 1 3.756-3.756h17.222v72.98a12.114 12.114 0 0 0 12.1 12.1zm133.284-132.343a9.112 9.112 0 0 1 9.1 9.1v16.951h-151.484v-16.949a9.112 9.112 0 0 1 9.1-9.1zm-174.771 174.798v-123.776a12.178 12.178 0 0 1 12.165-12.165h17.222v5.409h-17.222a6.764 6.764 0 0 0 -6.756 6.756v111.776a6.764 6.764 0 0 0 6.756 6.756h191.931a6.763 6.763 0 0 0 6.755-6.756v-111.776a6.763 6.763 0 0 0 -6.755-6.756h-17.224v-5.409h17.224a12.178 12.178 0 0 1 12.164 12.165v123.776a12.178 12.178 0 0 1 -12.164 12.165h-191.931a12.179 12.179 0 0 1 -12.165-12.165zm82.3 15.165h51.659v19.158h-51.659zm-10.861 22.159h73.383v6.2h-73.383z"/><path d="m69.682 32.722a6.342 6.342 0 1 0 -6.342-6.342 6.349 6.349 0 0 0 6.342 6.342zm0-9.684a3.342 3.342 0 1 1 -3.342 3.342 3.345 3.345 0 0 1 3.342-3.342z"/><path d="m88.332 32.722a6.342 6.342 0 1 0 -6.342-6.342 6.349 6.349 0 0 0 6.342 6.342zm0-9.684a3.342 3.342 0 1 1 -3.342 3.342 3.345 3.345 0 0 1 3.342-3.342z"/><path d="m106.981 32.722a6.342 6.342 0 1 0 -6.342-6.342 6.349 6.349 0 0 0 6.342 6.342zm0-9.684a3.342 3.342 0 1 1 -3.342 3.342 3.345 3.345 0 0 1 3.342-3.342z"/><path d="m126.206 31.886h61.265a5.189 5.189 0 1 0 0-10.378h-61.265a5.189 5.189 0 1 0 0 10.378zm0-7.378h61.265a2.189 2.189 0 1 1 0 4.378h-61.265a2.189 2.189 0 1 1 0-4.378z"/><path d="m95.613 123.708-4.226 4.513a1.5 1.5 0 1 0 2.189 2.051l4.227-4.514a11.957 11.957 0 0 1 4.229-2.915l5.741-2.38a24.4 24.4 0 0 0 40.463-.013l5.738 2.4a11.961 11.961 0 0 1 4.225 2.913l4.226 4.513a1.5 1.5 0 1 0 2.189-2.051l-4.226-4.513a14.938 14.938 0 0 0 -5.268-3.634l-5.351-2.234a24.258 24.258 0 0 0 2.648-11.038v-7.546h10.983a1.5 1.5 0 0 0 0-3h-10.983v-7.541a24.542 24.542 0 0 0 -.159-2.746l2.852-1.173a14.949 14.949 0 0 0 5.277-3.638l4.226-4.513a1.5 1.5 0 1 0 -2.189-2.051l-4.224 4.517a11.961 11.961 0 0 1 -4.225 2.913l-2.251.922a24.5 24.5 0 0 0 -11.824-15.54c.964-2.507 3.285-8.468 4.927-12.677a1.5 1.5 0 0 0 -2.795-1.091l-2.71 6.958c-.677 1.741-1.354 3.483-1.858 4.79-.1.263-.187.486-.273.713a24.342 24.342 0 0 0 -18.353-.011c-.085-.223-.169-.442-.269-.7-.5-1.307-1.181-3.049-1.858-4.79l-2.711-6.96a1.5 1.5 0 0 0 -2.795 1.091c1.64 4.2 3.954 10.146 4.921 12.662a24.5 24.5 0 0 0 -11.848 15.555l-2.251-.923a11.947 11.947 0 0 1 -4.227-2.912l-4.224-4.515a1.5 1.5 0 1 0 -2.189 2.051l4.226 4.513a14.937 14.937 0 0 0 5.277 3.639l2.853 1.169a24.548 24.548 0 0 0 -.159 2.746v7.542h-10.984a1.5 1.5 0 0 0 0 3h10.988v7.54a24.258 24.258 0 0 0 2.655 11.051l-5.349 2.218a14.936 14.936 0 0 0 -5.281 3.639zm10.97-16.908v-18.081c0-.49.041-.971.074-1.453h19.843v40.876a21.428 21.428 0 0 1 -19.917-21.342zm22.917 21.342v-40.876h19.843c.033.482.074.963.074 1.453v18.081a21.428 21.428 0 0 1 -19.917 21.342zm-1.5-60.842a21.449 21.449 0 0 1 20.944 16.963h-41.888a21.449 21.449 0 0 1 20.944-16.963z"/><circle cx="120.514" cy="76.366" r="1.712"/><circle cx="135.486" cy="76.366" r="1.712"/></g></svg>