<?xml version="1.0" encoding="iso-8859-1"?>
<!-- Generator: Adobe Illustrator 19.0.0, SVG Export Plug-In . SVG Version: 6.00 Build 0)  -->
<svg version="1.1" id="Capa_1" xmlns="http://www.w3.org/2000/svg" xmlns:xlink="http://www.w3.org/1999/xlink" x="0px" y="0px"
	 viewBox="0 0 512 512" style="enable-background:new 0 0 512 512;" xml:space="preserve">
<g>
	<g>
		<g>
			<path d="M469.333,76.795h-62.008c-1.284-1.741-2.501-3.533-3.846-5.225c-2.629-3.313-7.29-4.198-10.95-2.079l-23.896,13.821
				c-2.633-2.854-5.362-5.583-8.217-8.217l13.821-23.896c2.117-3.661,1.232-8.32-2.079-10.95
				c-14.086-11.167-29.731-20.212-46.438-26.846c-3.933-1.577-8.427-0.023-10.546,3.646l-13.833,23.858
				c-3.725-1.146-7.462-2.135-11.209-2.967V10.407c0-4.212-3.074-7.794-7.237-8.433c-17.834-2.625-35.957-2.625-53.792,0
				c-4.164,0.639-7.238,4.221-7.238,8.433v27.533c-3.742,0.833-7.478,1.822-11.208,2.967l-13.833-23.858
				c-2.122-3.666-6.613-5.218-10.546-3.646c-16.706,6.634-32.352,15.679-46.437,26.846c-3.311,2.63-4.196,7.289-2.079,10.95
				l13.821,23.896c-2.854,2.633-5.583,5.363-8.217,8.217L119.471,69.49c-3.661-2.115-8.319-1.23-10.95,2.079
				c-1.345,1.692-2.562,3.484-3.846,5.225H42.667C19.114,76.822,0.028,95.908,0,119.461v281.6
				c0.028,23.553,19.114,42.639,42.667,42.667H179.2v17.067h-59.733c-4.713,0-8.533,3.82-8.533,8.533v34.133
				c0,4.713,3.82,8.533,8.533,8.533h273.067c4.713,0,8.533-3.82,8.533-8.533v-34.133c0-4.713-3.821-8.533-8.533-8.533H332.8v-17.067
				h136.533c23.553-0.028,42.639-19.114,42.667-42.667v-281.6C511.972,95.909,492.886,76.823,469.333,76.795z M117.446,88.032
				l23.433,13.558c3.588,2.08,8.153,1.274,10.813-1.908c4.927-5.893,10.369-11.336,16.262-16.262
				c3.179-2.662,3.984-7.223,1.908-10.813l-13.558-23.433c9.237-6.677,19.133-12.392,29.533-17.054l13.542,23.354
				c2.066,3.568,6.388,5.146,10.267,3.75c7.203-2.599,14.622-4.554,22.171-5.842c4.108-0.693,7.116-4.251,7.117-8.417v-27.05
				c11.35-1.133,22.784-1.133,34.133,0v27.05c0.001,4.166,3.009,7.723,7.117,8.417c7.548,1.288,14.968,3.243,22.171,5.842
				c3.879,1.399,8.203-0.181,10.267-3.75l13.542-23.354c10.401,4.662,20.297,10.377,29.533,17.054l-13.558,23.433
				c-2.075,3.589-1.27,8.151,1.908,10.813c5.893,4.927,11.336,10.369,16.263,16.262c2.662,3.178,7.223,3.982,10.813,1.908
				l23.433-13.558c6.677,9.237,12.392,19.133,17.054,29.533l-23.354,13.542c-3.566,2.067-5.144,6.388-3.75,10.267
				c2.599,7.203,4.554,14.622,5.842,22.171c0.694,4.108,4.251,7.116,8.417,7.117h27.05c0.283,2.758,0.284,5.685,0.427,8.533h-51.205
				C370.626,116.704,318.646,68.261,256,68.261s-114.626,48.443-119.034,110.934H85.76c0.143-2.848,0.144-5.775,0.427-8.533h27.051
				c4.166-0.001,7.723-3.009,8.417-7.117c1.288-7.548,3.243-14.968,5.842-22.171c1.394-3.879-0.184-8.199-3.75-10.267
				l-23.354-13.542C105.054,107.165,110.768,97.269,117.446,88.032z M357.968,179.195H154.032
				c4.397-53.05,48.736-93.866,101.968-93.866C309.232,85.329,353.571,126.145,357.968,179.195z M384,477.862v17.067H128v-17.067
				H384z M196.267,460.795v-17.067h119.467v17.067H196.267z M494.933,401.062c-0.015,14.132-11.468,25.585-25.6,25.6H42.667
				c-14.132-0.015-25.585-11.468-25.6-25.6v-25.6h477.867V401.062z M494.933,358.395H17.067V119.461
				c0.015-14.132,11.468-25.585,25.6-25.6h50.707c-4.473,7.758-8.383,15.828-11.699,24.146c-1.57,3.933-0.018,8.422,3.646,10.546
				l23.858,13.833c-1.146,3.725-2.135,7.461-2.966,11.208H78.679c-4.212,0-7.794,3.074-8.433,7.237
				c-0.881,6.087-1.439,12.216-1.67,18.363h-8.843c-4.713,0-8.533,3.82-8.533,8.533s3.82,8.533,8.533,8.533h392.533
				c4.713,0,8.533-3.82,8.533-8.533s-3.821-8.533-8.533-8.533h-8.843c-0.231-6.146-0.788-12.276-1.67-18.363
				c-0.639-4.164-4.221-7.238-8.433-7.237h-27.533c-0.833-3.742-1.822-7.478-2.967-11.208l23.858-13.833
				c3.664-2.124,5.216-6.613,3.646-10.546c-3.317-8.318-7.226-16.388-11.699-24.146h50.707c14.132,0.015,25.585,11.468,25.6,25.6
				V358.395z"/>
			<path d="M169.783,271.736l-0.002-0.004c-4.495-26.869-26.608-47.287-53.75-49.629s-52.426,13.987-61.456,39.689
				c-9.031,25.702,0.484,54.257,23.125,69.407l0.079,0.079c0.071,0.047,0.153,0.061,0.225,0.106
				c19.792,13.277,45.596,13.466,65.58,0.479c19.984-12.987,30.293-36.643,26.199-60.122V271.736z M119.467,239.791
				c14.22,2.961,25.962,12.941,31.175,26.498l-31.175,5.222V239.791z M70.097,269.203c4.542-14.997,16.948-26.292,32.303-29.412
				v39.215l-21.749,32.591C69.607,300.48,65.554,284.2,70.097,269.203z M110.933,324.261c-5.516-0.009-10.977-1.096-16.077-3.198
				l21.128-31.662l37.46-6.277C152.638,306.036,133.859,324.207,110.933,324.261z"/>
			<path d="M452.267,221.862H204.8c-4.713,0-8.533,3.82-8.533,8.533v102.4c0,4.713,3.82,8.533,8.533,8.533h247.467
				c4.713,0,8.533-3.821,8.533-8.533v-102.4C460.8,225.682,456.979,221.862,452.267,221.862z M256,324.261h-42.667v-51.2H256
				V324.261z M256,255.995h-42.667v-17.067H256V255.995z M443.733,324.261H273.067v-51.2h170.667V324.261z M443.733,255.995H273.067
				v-17.067h170.667V255.995z"/>
			<path d="M298.667,307.195h17.067c4.713,0,8.533-3.82,8.533-8.533s-3.82-8.533-8.533-8.533h-17.067
				c-4.713,0-8.533,3.82-8.533,8.533S293.954,307.195,298.667,307.195z"/>
			<path d="M349.867,307.195h17.067c4.713,0,8.533-3.82,8.533-8.533s-3.82-8.533-8.533-8.533h-17.067
				c-4.713,0-8.533,3.82-8.533,8.533S345.154,307.195,349.867,307.195z"/>
			<path d="M401.067,307.195h17.067c4.713,0,8.533-3.82,8.533-8.533s-3.82-8.533-8.533-8.533h-17.067
				c-4.713,0-8.533,3.82-8.533,8.533S396.354,307.195,401.067,307.195z"/>
		</g>
	</g>
</g>
<g>
</g>
<g>
</g>
<g>
</g>
<g>
</g>
<g>
</g>
<g>
</g>
<g>
</g>
<g>
</g>
<g>
</g>
<g>
</g>
<g>
</g>
<g>
</g>
<g>
</g>
<g>
</g>
<g>
</g>
</svg>
