<svg height="512" viewBox="0 0 512 512" width="512" xmlns="http://www.w3.org/2000/svg"><g><g><path d="m16 432h480a0 0 0 0 1 0 0v44a20 20 0 0 1 -20 20h-440a20 20 0 0 1 -20-20v-44a0 0 0 0 1 0 0z" fill="#d8d7da"/><path d="m288 464h-64l-8-32h80z" fill="#acabb1"/><path d="m389.89 128h62.11a19.994 19.994 0 0 1 20 20v284h-432v-284a19.994 19.994 0 0 1 20-20h62.11" fill="#3e3d42"/><path d="m392 152h56v256h-384v-256h56" fill="#78b9eb"/></g><g><path d="m128 137v-121h256v104" fill="#ffeb99"/><path d="m416 132v232a12 12 0 0 1 -12 12h-296a12 12 0 0 1 -12-12v-280a12 12 0 0 1 12-12h84l32 48h180a12 12 0 0 1 12 12z" fill="#ffda44"/><path d="m288 296h96v56h-96z" fill="#ff9811"/></g><g><path d="m496 424h-16v-276a28.031 28.031 0 0 0 -28-28h-32.04a19.947 19.947 0 0 0 -15.96-8h-12v-96a8 8 0 0 0 -8-8h-256a8 8 0 0 0 -8 8v48h-12a20.02 20.02 0 0 0 -20 20v36h-28a28.031 28.031 0 0 0 -28 28v276h-16a8 8 0 0 0 -8 8v44a28.031 28.031 0 0 0 28 28h440a28.031 28.031 0 0 0 28-28v-44a8 8 0 0 0 -8-8zm-360-400h240v88h-147.72l-29.62-44.44a8.033 8.033 0 0 0 -6.66-3.56h-56zm-32 60a4 4 0 0 1 4-4h79.72l29.62 44.44a8.033 8.033 0 0 0 6.66 3.56h180a4 4 0 0 1 4 4v232a4 4 0 0 1 -4 4h-296a4 4 0 0 1 -4-4zm4 300h296a20.02 20.02 0 0 0 20-20v-204h16v240h-368v-240h16v204a20.02 20.02 0 0 0 20 20zm-60-236a12.01 12.01 0 0 1 12-12h28v8h-24a8 8 0 0 0 -8 8v256a8 8 0 0 0 8 8h384a8 8 0 0 0 8-8v-256a8 8 0 0 0 -8-8h-24v-8h28a12.01 12.01 0 0 1 12 12v276h-416zm237.75 292-4 16h-51.5l-4-16zm202.25 36a12.01 12.01 0 0 1 -12 12h-440a12.01 12.01 0 0 1 -12-12v-36h185.75l6.49 25.94a8 8 0 0 0 7.76 6.06h64a8 8 0 0 0 7.76-6.06l6.49-25.94h185.75z"/><path d="m288 360h96a8 8 0 0 0 8-8v-56a8 8 0 0 0 -8-8h-96a8 8 0 0 0 -8 8v56a8 8 0 0 0 8 8zm8-56h80v40h-80z"/></g></g></svg>