<svg id="light" enable-background="new 0 0 24 24" height="512" viewBox="0 0 24 24" width="512" xmlns="http://www.w3.org/2000/svg"><g><path d="m23.5 10c-.1 0-.2 0-.3-.1l-2.5-1.7c-.2-.1-.5-.2-.8-.2h-6.4c-.8 0-1.5-.7-1.5-1.5v-5c0-.8.7-1.5 1.5-1.5h9c.8 0 1.5.7 1.5 1.5v8c0 .2-.1.4-.3.4 0 .1-.1.1-.2.1zm-10-9c-.3 0-.5.2-.5.5v5c0 .3.2.5.5.5h6.4c.5 0 1 .1 1.4.4l1.7 1.2v-7.1c0-.3-.2-.5-.5-.5z"/></g><g><path d="m.5 12c-.1 0-.2 0-.2-.1-.2 0-.3-.2-.3-.4v-8c0-.8.7-1.5 1.5-1.5h8c.3 0 .5.2.5.5s-.2.5-.5.5h-8c-.3 0-.5.2-.5.5v7.1l1.7-1.1c.4-.3.9-.5 1.4-.5h8.4c.3 0 .5.2.5.5s-.2.5-.5.5h-8.4c-.3 0-.6.1-.8.3l-2.5 1.7c-.1 0-.2 0-.3 0z"/></g><g><path d="m5.5 18c-1.7 0-3-1.3-3-3s1.3-3 3-3 3 1.3 3 3-1.3 3-3 3zm0-5c-1.1 0-2 .9-2 2s.9 2 2 2 2-.9 2-2-.9-2-2-2z"/></g><g><path d="m10.5 24c-.3 0-.5-.2-.5-.5v-2c0-.8-.7-1.5-1.5-1.5h-6c-.8 0-1.5.7-1.5 1.5v2c0 .3-.2.5-.5.5s-.5-.2-.5-.5v-2c0-1.4 1.1-2.5 2.5-2.5h6c1.4 0 2.5 1.1 2.5 2.5v2c0 .3-.2.5-.5.5z"/></g><g><path d="m18.5 18c-1.7 0-3-1.3-3-3s1.3-3 3-3 3 1.3 3 3-1.3 3-3 3zm0-5c-1.1 0-2 .9-2 2s.9 2 2 2 2-.9 2-2-.9-2-2-2z"/></g><g><path d="m23.5 24c-.3 0-.5-.2-.5-.5v-2c0-.8-.7-1.5-1.5-1.5h-6c-.8 0-1.5.7-1.5 1.5v2c0 .3-.2.5-.5.5s-.5-.2-.5-.5v-2c0-1.4 1.1-2.5 2.5-2.5h6c1.4 0 2.5 1.1 2.5 2.5v2c0 .3-.2.5-.5.5z"/></g></svg>