<svg id="Capa_1" enable-background="new 0 0 512 512" height="512" viewBox="0 0 512 512" width="512" xmlns="http://www.w3.org/2000/svg"><g><g><g><g><g><path d="m375.285 504.5h-238.57c-11.046 0-20-8.954-20-20v-457c0-11.046 8.954-20 20-20h238.571c11.046 0 20 8.954 20 20v457c-.001 11.046-8.955 20-20.001 20z" fill="#1faaee"/><path d="m395.29 27.5v457c0 11.05-8.96 20-20 20h-34.07c11.04 0 20-8.95 20-20v-457c0-11.05-8.96-20-20-20h34.07c11.04 0 20 8.95 20 20z" fill="#1891cd"/><path d="m116.71 58.22h278.58v395.56h-278.58z" fill="#def5fc"/><path d="m361.22 58.22h34.07v395.56h-34.07z" fill="#9ce6fb"/></g></g></g><g><g><g><g><g><path d="m201.485 370.996v34.723c0 3.341-2.707 6.042-6.042 6.042h-34.723c-3.335 0-6.042-2.701-6.042-6.042v-34.723c0-3.335 2.707-6.042 6.042-6.042h34.723c3.335 0 6.042 2.707 6.042 6.042z" fill="#23f1a8"/><path d="m201.481 370.997v34.723c0 3.335-2.701 6.042-6.042 6.042h-19.172c3.335 0 6.042-2.707 6.042-6.042v-34.723c0-3.335-2.707-6.042-6.042-6.042h19.172c3.341 0 6.042 2.707 6.042 6.042z" fill="#26d192"/></g></g></g><g><circle cx="194.616" cy="368.387" fill="#fb4a59" r="16.535"/><path d="m211.146 368.385c0 9.136-7.393 16.54-16.529 16.54-3.402 0-6.575-1.034-9.196-2.789 6.587-1.118 11.6-6.84 11.6-13.752 0-6.888-5.013-12.622-11.588-13.74 2.621-1.767 5.782-2.789 9.184-2.789 9.136.002 16.529 7.395 16.529 16.53z" fill="#f82f40"/></g></g><g><g><g><g><path d="m279.404 370.997v34.723c0 3.341-2.707 6.042-6.042 6.042h-34.723c-3.335 0-6.042-2.701-6.042-6.042v-34.723c0-3.335 2.707-6.042 6.042-6.042h34.723c3.336 0 6.042 2.707 6.042 6.042z" fill="#fcb44d"/><path d="m279.4 370.998v34.723c0 3.335-2.701 6.042-6.042 6.042h-19.172c3.335 0 6.042-2.707 6.042-6.042v-34.723c0-3.335-2.707-6.042-6.042-6.042h19.172c3.342 0 6.042 2.707 6.042 6.042z" fill="#fb9927"/></g></g></g></g><g><g><g><g><path d="m357.324 370.997v34.723c0 3.341-2.707 6.042-6.042 6.042h-34.723c-3.335 0-6.042-2.701-6.042-6.042v-34.723c0-3.335 2.707-6.042 6.042-6.042h34.723c3.335 0 6.042 2.707 6.042 6.042z" fill="#24d1f8"/><path d="m357.32 370.998v34.723c0 3.335-2.701 6.042-6.042 6.042h-19.172c3.335 0 6.042-2.707 6.042-6.042v-34.723c0-3.335-2.707-6.042-6.042-6.042h19.172c3.341 0 6.042 2.707 6.042 6.042z" fill="#21c1f8"/></g></g></g></g></g><g><g><g><g><g><g><path d="m201.485 225.59v34.723c0 3.341-2.707 6.042-6.042 6.042h-34.723c-3.335 0-6.042-2.701-6.042-6.042v-34.723c0-3.335 2.707-6.042 6.042-6.042h34.723c3.335 0 6.042 2.707 6.042 6.042z" fill="#d67f4f"/><path d="m201.481 225.591v34.723c0 3.335-2.701 6.042-6.042 6.042h-19.172c3.335 0 6.042-2.707 6.042-6.042v-34.723c0-3.335-2.707-6.042-6.042-6.042h19.172c3.341 0 6.042 2.707 6.042 6.042z" fill="#c76d3d"/></g></g></g></g><g><g><g><g><path d="m279.404 225.592v34.723c0 3.341-2.707 6.042-6.042 6.042h-34.723c-3.335 0-6.042-2.701-6.042-6.042v-34.723c0-3.335 2.707-6.042 6.042-6.042h34.723c3.336-.001 6.042 2.706 6.042 6.042z" fill="#fcb44d"/><path d="m279.4 225.592v34.723c0 3.335-2.701 6.042-6.042 6.042h-19.172c3.335 0 6.042-2.707 6.042-6.042v-34.723c0-3.335-2.707-6.042-6.042-6.042h19.172c3.342 0 6.042 2.707 6.042 6.042z" fill="#fb9927"/></g></g></g></g><g><g><g><g><path d="m357.324 225.592v34.723c0 3.341-2.707 6.042-6.042 6.042h-34.723c-3.335 0-6.042-2.701-6.042-6.042v-34.723c0-3.335 2.707-6.042 6.042-6.042h34.723c3.335-.001 6.042 2.706 6.042 6.042z" fill="#596d76"/><path d="m357.32 225.592v34.723c0 3.335-2.701 6.042-6.042 6.042h-19.172c3.335 0 6.042-2.707 6.042-6.042v-34.723c0-3.335-2.707-6.042-6.042-6.042h19.172c3.341 0 6.042 2.707 6.042 6.042z" fill="#475a61"/></g></g></g></g></g><g><g><g><g><g><path d="m201.485 149.832v34.723c0 3.341-2.707 6.042-6.042 6.042h-34.723c-3.335 0-6.042-2.701-6.042-6.042v-34.723c0-3.335 2.707-6.042 6.042-6.042h34.723c3.335 0 6.042 2.707 6.042 6.042z" fill="#23f1a8"/><path d="m201.481 149.833v34.723c0 3.335-2.701 6.042-6.042 6.042h-19.172c3.335 0 6.042-2.707 6.042-6.042v-34.723c0-3.335-2.707-6.042-6.042-6.042h19.172c3.341 0 6.042 2.707 6.042 6.042z" fill="#26d192"/></g></g></g></g><g><g><g><g><path d="m279.404 149.833v34.723c0 3.341-2.707 6.042-6.042 6.042h-34.723c-3.335 0-6.042-2.701-6.042-6.042v-34.723c0-3.335 2.707-6.042 6.042-6.042h34.723c3.336 0 6.042 2.707 6.042 6.042z" fill="#fb4a59"/><path d="m279.4 149.834v34.723c0 3.335-2.701 6.042-6.042 6.042h-19.172c3.335 0 6.042-2.707 6.042-6.042v-34.723c0-3.335-2.707-6.042-6.042-6.042h19.172c3.342 0 6.042 2.707 6.042 6.042z" fill="#f82f40"/></g></g></g></g><g><g><g><g><path d="m357.324 149.833v34.723c0 3.341-2.707 6.042-6.042 6.042h-34.723c-3.335 0-6.042-2.701-6.042-6.042v-34.723c0-3.335 2.707-6.042 6.042-6.042h34.723c3.335 0 6.042 2.707 6.042 6.042z" fill="#24d1f8"/><path d="m357.32 149.834v34.723c0 3.335-2.701 6.042-6.042 6.042h-19.172c3.335 0 6.042-2.707 6.042-6.042v-34.723c0-3.335-2.707-6.042-6.042-6.042h19.172c3.341 0 6.042 2.707 6.042 6.042z" fill="#21c1f8"/></g></g></g></g></g></g><g><g><path d="m199.932 111.415h-40.255c-2.761 0-5-2.239-5-5v-17.785c0-2.761 2.239-5 5-5h40.255c2.761 0 5 2.239 5 5v17.785c0 2.761-2.238 5-5 5z" fill="#26d192"/></g></g></g><g><path d="m395.285 151.67c-4.142 0-7.5 3.358-7.5 7.5v287.112h-53.193c-4.142 0-7.5 3.358-7.5 7.5s3.358 7.5 7.5 7.5h53.193v23.218c0 6.893-5.607 12.5-12.5 12.5h-238.57c-6.893 0-12.5-5.607-12.5-12.5v-23.217h174.088c4.142 0 7.5-3.358 7.5-7.5s-3.358-7.5-7.5-7.5h-174.088v-86.334c0-4.142-3.358-7.5-7.5-7.5s-7.5 3.358-7.5 7.5v124.551c0 15.164 12.336 27.5 27.5 27.5h238.57c15.164 0 27.5-12.336 27.5-27.5v-325.33c0-4.142-3.358-7.5-7.5-7.5z"/><path d="m375.285 0h-238.57c-15.164 0-27.5 12.336-27.5 27.5v296.159c0 4.142 3.358 7.5 7.5 7.5s7.5-3.358 7.5-7.5v-257.942h263.57v57.164c0 4.142 3.358 7.5 7.5 7.5s7.5-3.358 7.5-7.5v-95.381c0-15.164-12.336-27.5-27.5-27.5zm-251.07 50.717v-23.217c0-6.893 5.607-12.5 12.5-12.5h238.57c6.893 0 12.5 5.607 12.5 12.5v23.217z"/><path d="m233.133 26.148c-4.142 0-7.5 3.358-7.5 7.5v.104c0 4.142 3.358 7.5 7.5 7.5s7.5-3.358 7.5-7.5v-.104c0-4.142-3.358-7.5-7.5-7.5z"/><path d="m278.896 26.662-22.669-.088c-.01 0-.02 0-.03 0-4.128 0-7.483 3.339-7.5 7.471-.016 4.142 3.329 7.513 7.471 7.529l22.669.088h.03c4.128 0 7.483-3.339 7.5-7.471.016-4.142-3.329-7.513-7.471-7.529z"/><path d="m147.176 405.721c0 7.467 6.075 13.542 13.542 13.542h34.723c7.467 0 13.542-6.075 13.542-13.542v-18.077c5.865-4.387 9.668-11.386 9.668-19.257 0-13.253-10.782-24.035-24.035-24.035-9.318 0-17.409 5.334-21.395 13.105h-12.503c-7.467 0-13.542 6.075-13.542 13.542zm47.44-46.369c4.982 0 9.035 4.053 9.035 9.035s-4.053 9.035-9.035 9.035-9.035-4.053-9.035-9.035 4.053-9.035 9.035-9.035zm-32.44 13.105h8.756c1.905 11.118 11.469 19.647 23.05 19.949v11.858h-31.807v-31.807z"/><path d="m225.096 405.723c0 7.467 6.075 13.542 13.542 13.542h34.723c7.467 0 13.542-6.075 13.542-13.542v-34.723c0-7.467-6.075-13.542-13.542-13.542h-34.723c-7.467 0-13.542 6.075-13.542 13.542zm15-33.265h31.807v31.807h-31.807z"/><path d="m303.016 405.723c0 7.467 6.075 13.542 13.542 13.542h34.723c7.467 0 13.542-6.075 13.542-13.542v-34.723c0-7.467-6.075-13.542-13.542-13.542h-34.723c-7.467 0-13.542 6.075-13.542 13.542zm15-33.265h31.807v31.807h-31.807z"/><path d="m147.176 260.315c0 7.467 6.075 13.542 13.542 13.542h34.723c7.467 0 13.542-6.075 13.542-13.542v-34.723c0-7.467-6.075-13.542-13.542-13.542h-34.723c-7.467 0-13.542 6.075-13.542 13.542zm15-33.264h31.807v31.807h-31.807z"/><path d="m225.096 260.317c0 7.467 6.075 13.542 13.542 13.542h34.723c7.467 0 13.542-6.075 13.542-13.542v-34.723c0-7.467-6.075-13.542-13.542-13.542h-34.723c-7.467 0-13.542 6.075-13.542 13.542zm15-33.265h31.807v31.807h-31.807z"/><path d="m303.016 260.317c0 7.467 6.075 13.542 13.542 13.542h34.723c7.467 0 13.542-6.075 13.542-13.542v-34.723c0-7.467-6.075-13.542-13.542-13.542h-34.723c-7.467 0-13.542 6.075-13.542 13.542zm15-33.265h31.807v31.807h-31.807z"/><path d="m147.176 184.557c0 7.467 6.075 13.542 13.542 13.542h34.723c7.467 0 13.542-6.075 13.542-13.542v-34.723c0-7.467-6.075-13.542-13.542-13.542h-34.723c-7.467 0-13.542 6.075-13.542 13.542zm15-33.265h31.807v31.807h-31.807z"/><path d="m238.638 198.101h34.723c7.467 0 13.542-6.075 13.542-13.542v-34.723c0-7.467-6.075-13.542-13.542-13.542h-34.723c-7.467 0-13.542 6.075-13.542 13.542v34.723c0 7.467 6.075 13.542 13.542 13.542zm1.458-46.808h31.807v31.807h-31.807z"/><path d="m303.016 149.836v34.723c0 7.467 6.075 13.542 13.542 13.542h34.723c7.467 0 13.542-6.075 13.542-13.542v-34.723c0-7.467-6.075-13.542-13.542-13.542h-34.723c-7.468-.001-13.542 6.075-13.542 13.542zm15 1.457h31.807v31.807h-31.807z"/><path d="m326.486 111.415v-5.799c0-4.142-3.358-7.5-7.5-7.5s-7.5 3.358-7.5 7.5v5.799c0 4.142 3.358 7.5 7.5 7.5s7.5-3.358 7.5-7.5z"/><path d="m347.426 111.415v-9.799c0-4.142-3.358-7.5-7.5-7.5s-7.5 3.358-7.5 7.5v9.799c0 4.142 3.358 7.5 7.5 7.5s7.5-3.358 7.5-7.5z"/><path d="m368.366 111.415v-13.799c0-4.142-3.358-7.5-7.5-7.5s-7.5 3.358-7.5 7.5v13.799c0 4.142 3.358 7.5 7.5 7.5s7.5-3.358 7.5-7.5z"/><path d="m199.932 76.13h-40.255c-6.893 0-12.5 5.607-12.5 12.5v17.785c0 6.893 5.607 12.5 12.5 12.5h40.255c6.893 0 12.5-5.607 12.5-12.5v-1.484c3.612-.54 6.385-3.646 6.385-7.408s-2.773-6.869-6.385-7.408v-1.485c0-6.893-5.607-12.5-12.5-12.5zm-2.5 27.785h-35.255v-12.785h35.255z"/></g></g></svg>