<svg id="Capa_1" enable-background="new 0 0 512 512" height="512" viewBox="0 0 512 512" width="512" xmlns="http://www.w3.org/2000/svg"><g><path d="m356.54 72.919c-11.304 0-20.5-9.196-20.5-20.5s9.196-20.5 20.5-20.5 20.5 9.196 20.5 20.5-9.197 20.5-20.5 20.5zm0-26c-3.033 0-5.5 2.467-5.5 5.5s2.467 5.5 5.5 5.5 5.5-2.467 5.5-5.5-2.468-5.5-5.5-5.5z"/><g><path d="m365.213 0h-218.426c-23.869 0-43.287 19.418-43.287 43.287v37.337c0 4.142 3.358 7.5 7.5 7.5s7.5-3.358 7.5-7.5v-37.337c0-15.598 12.689-28.287 28.287-28.287h218.427c15.597 0 28.287 12.689 28.287 28.287v385.213h-275v-312.876c0-4.142-3.358-7.5-7.5-7.5s-7.5 3.358-7.5 7.5v320.376 32.713c0 23.868 19.418 43.287 43.287 43.287h172.764c4.142 0 7.5-3.358 7.5-7.5s-3.358-7.5-7.5-7.5h-172.765c-15.597 0-28.287-12.689-28.287-28.287v-25.213h275v25.213c0 15.597-12.689 28.287-28.287 28.287h-10.663c-4.142 0-7.5 3.358-7.5 7.5s3.358 7.5 7.5 7.5h10.663c23.868 0 43.287-19.418 43.287-43.287v-32.713-392.713c0-23.869-19.418-43.287-43.287-43.287z"/><path d="m233.5 463.055c-4.142 0-7.5 3.358-7.5 7.5s3.358 7.5 7.5 7.5h45c4.142 0 7.5-3.358 7.5-7.5s-3.358-7.5-7.5-7.5z"/><path d="m232.5 181.666h47c6.893 0 12.5-5.607 12.5-12.5v-47c0-6.893-5.607-12.5-12.5-12.5h-47c-6.893 0-12.5 5.607-12.5 12.5v47c0 6.892 5.607 12.5 12.5 12.5zm2.5-57h42v42h-42z"/><path d="m147.46 181.666h47c6.893 0 12.5-5.607 12.5-12.5v-47c0-6.893-5.607-12.5-12.5-12.5h-47c-6.893 0-12.5 5.607-12.5 12.5v47c0 6.892 5.608 12.5 12.5 12.5zm2.5-57h42v42h-42z"/><path d="m317.54 181.666h47c6.893 0 12.5-5.607 12.5-12.5v-47c0-6.893-5.607-12.5-12.5-12.5h-47c-6.893 0-12.5 5.607-12.5 12.5v47c0 6.892 5.607 12.5 12.5 12.5zm2.5-57h42v42h-42z"/><path d="m220 262.708c0 6.893 5.607 12.5 12.5 12.5h47c6.893 0 12.5-5.607 12.5-12.5v-47c0-6.893-5.607-12.5-12.5-12.5h-47c-6.893 0-12.5 5.607-12.5 12.5zm15-44.5h42v42h-42z"/><path d="m134.96 262.708c0 6.893 5.607 12.5 12.5 12.5h47c6.893 0 12.5-5.607 12.5-12.5v-47c0-6.893-5.607-12.5-12.5-12.5h-47c-6.893 0-12.5 5.607-12.5 12.5zm15-44.5h42v42h-42z"/><path d="m305.04 262.708c0 6.893 5.607 12.5 12.5 12.5h47c6.893 0 12.5-5.607 12.5-12.5v-47c0-6.893-5.607-12.5-12.5-12.5h-47c-6.893 0-12.5 5.607-12.5 12.5zm15-44.5h42v42h-42z"/></g></g></svg>