<svg id="Capa_1" enable-background="new 0 0 512 512" height="512" viewBox="0 0 512 512" width="512" xmlns="http://www.w3.org/2000/svg"><g><g><path d="m440.371 151.79h-368.742c-13.281 0-24.048 10.767-24.048 24.048v296.597h416.839v-296.596c-.001-13.282-10.767-24.049-24.049-24.049z" fill="#c3ddff"/><path d="m424.339 432.355h-336.678c-8.854 0-16.032-7.178-16.032-16.032v-224.452c0-8.854 7.178-16.032 16.032-16.032h336.677c8.854 0 16.032 7.178 16.032 16.032v224.452c.001 8.854-7.177 16.032-16.031 16.032z" fill="#dbeaff"/><path d="m207.903 191.871-42.307 49.358c-3.736 4.359-5.789 9.91-5.789 15.65v23.168l72.145-40.081z" fill="#ff8086"/><path d="m199.24 258.141 32.711-18.173-24.048-48.097-23.774 27.737c3.763 13.315 8.865 26.187 15.111 38.533z" fill="#e5646e"/><path d="m304.097 191.871 42.307 49.358c3.736 4.359 5.789 9.91 5.789 15.65v23.168l-72.145-40.081z" fill="#ff8086"/><path d="m7.5 456.403v16.032c0 8.854 7.178 16.032 16.032 16.032h464.935c8.854 0 16.032-7.178 16.032-16.032v-16.032z" fill="#dad8db"/><path d="m261.776 29.485c-3.083-3.325-8.47-3.325-11.553 0-31.051 33.487-50.336 79.444-50.336 130.322 0 38.704 11.205 74.525 30.215 104.21h51.796c19.01-29.685 30.215-65.506 30.215-104.21 0-50.879-19.286-96.835-50.337-130.322z" fill="#ffe07d"/><path d="m251.205 239.968c-3.186 0-6.123-1.987-7.481-5.063-10.471-23.709-15.781-48.976-15.781-75.098 0-25.123 5.186-49.594 14.705-72.145h-29.028c-8.822 22.162-13.733 46.523-13.733 72.145 0 38.704 11.205 74.525 30.215 104.21h51.796c4.883-7.625 9.23-15.668 13.026-24.048h-3.956-39.763z" fill="#ffd064"/><path d="m288.065 296.081h-64.13l6.167-32.065h51.796z" fill="#c8c5c9"/><circle cx="256" cy="151.79" fill="#c3ddff" r="24.048"/><path d="m213.619 87.661h84.761c-8.696-21.845-21.191-41.553-36.604-58.177-3.083-3.326-8.469-3.326-11.553 0-15.413 16.624-27.908 36.332-36.604 58.177z" fill="#ff8086"/><path d="m242.661 87.661c7.28-17.285 16.868-33.061 28.632-46.903-3.052-3.874-6.182-7.678-9.516-11.274-3.083-3.326-8.469-3.326-11.553 0-15.414 16.623-27.909 36.331-36.604 58.177z" fill="#e5646e"/><path d="m368.226 384.258c-6.433 0-12.589 1.136-18.345 3.129-5.393-15.768-20.174-27.178-37.768-27.178-9.812 0-18.681 3.664-25.648 9.518.946-3.026 1.6-6.18 1.6-9.518 0-17.709-14.355-32.065-32.065-32.065s-32.065 14.356-32.065 32.065c0 3.337.654 6.492 1.6 9.518-6.967-5.854-15.837-9.518-25.648-9.518-17.594 0-32.376 11.41-37.768 27.178-5.756-1.993-11.912-3.129-18.345-3.129-30.99 0-56.113 25.122-56.113 56.113 0 5.575.841 10.949 2.354 16.032h331.969c1.514-5.083 2.354-10.457 2.354-16.032.001-30.991-25.122-56.113-56.112-56.113z" fill="#fff"/><path d="m256 127.742c-10.87 0-19.946 7.258-22.925 17.156 2.198-.661 4.48-1.124 6.893-1.124 13.282 0 24.048 10.767 24.048 24.048 0 2.413-.463 4.695-1.123 6.892 9.898-2.978 17.156-12.055 17.156-22.925-.001-13.28-10.767-24.047-24.049-24.047z" fill="#a4ccff"/></g><g><path d="m504.5 448.903h-32.581v-273.064c0-17.396-14.152-31.548-31.548-31.548h-96.19c-4.142 0-7.5 3.358-7.5 7.5s3.358 7.5 7.5 7.5h96.19c9.125 0 16.548 7.424 16.548 16.548v273.065h-25.671c.387-2.832.59-5.682.59-8.532 0-35.076-28.537-63.613-63.613-63.613-4.716 0-9.425.539-14.067 1.606-8.092-15.592-24.211-25.655-42.045-25.655-5.818 0-11.469 1.061-16.789 3.122-2.185-19.764-18.987-35.187-39.324-35.187s-37.139 15.423-39.324 35.187c-5.32-2.061-10.971-3.122-16.789-3.122-17.834 0-33.954 10.063-42.045 25.655-4.643-1.068-9.351-1.606-14.067-1.606-35.077 0-63.613 28.537-63.613 63.613 0 2.851.203 5.7.59 8.532h-25.671v-273.065c0-9.125 7.423-16.548 16.548-16.548h96.193c4.142 0 7.5-3.358 7.5-7.5s-3.358-7.5-7.5-7.5h-96.193c-17.396 0-31.548 14.153-31.548 31.548v273.065h-32.581c-4.142 0-7.5 3.358-7.5 7.5v16.032c0 12.976 10.557 23.532 23.532 23.532h464.936c12.976 0 23.532-10.557 23.532-23.532v-16.032c0-4.143-3.358-7.501-7.5-7.501zm-7.5 23.533c0 4.705-3.828 8.532-8.532 8.532h-464.936c-4.705 0-8.532-3.828-8.532-8.532v-8.532h96.707c4.142 0 7.5-3.358 7.5-7.5s-3.358-7.5-7.5-7.5h-15.778c-.509-2.827-.768-5.681-.768-8.532 0-26.805 21.808-48.613 48.613-48.613 5.339 0 10.685.914 15.89 2.716 1.885.653 3.951.528 5.744-.346 1.792-.875 3.162-2.427 3.808-4.314 4.521-13.221 16.847-22.104 30.672-22.104 7.581 0 14.781 2.683 20.823 7.76 2.551 2.143 6.209 2.347 8.982.5s3.995-5.301 3.001-8.48c-.858-2.746-1.258-5.059-1.258-7.28 0-13.545 11.02-24.564 24.564-24.564s24.564 11.02 24.564 24.564c0 2.221-.4 4.534-1.258 7.28-.994 3.18.229 6.634 3.001 8.48 2.773 1.846 6.431 1.643 8.982-.5 6.042-5.076 13.243-7.76 20.823-7.76 13.825 0 26.151 8.883 30.672 22.104.646 1.887 2.016 3.439 3.808 4.314 1.793.875 3.86 1 5.744.346 5.205-1.802 10.55-2.716 15.89-2.716 26.806 0 48.613 21.808 48.613 48.613 0 2.851-.26 5.705-.768 8.532h-272.294c-4.142 0-7.5 3.358-7.5 7.5s3.358 7.5 7.5 7.5h353.223z"/><path d="m159.619 236.494c-4.715 5.658-7.312 12.831-7.312 20.197v23.358c0 2.666 1.416 5.132 3.718 6.477 1.168.682 2.475 1.023 3.782 1.023 1.271 0 2.542-.322 3.686-.968l53.41-30.137c2.035 3.716 4.193 7.372 6.472 10.961l-6.714 26.857c-.561 2.241-.057 4.614 1.364 6.435s3.602 2.885 5.912 2.885h64.129c2.31 0 4.49-1.064 5.912-2.885 1.421-1.82 1.925-4.194 1.364-6.435l-6.714-26.857c2.279-3.589 4.437-7.244 6.472-10.961l53.41 30.137c1.145.646 2.415.968 3.686.968 1.307 0 2.614-.342 3.782-1.023 2.302-1.344 3.718-3.81 3.718-6.477v-23.358c0-7.366-2.597-14.539-7.312-20.197l-35.604-42.711c1.875-11.141 2.835-22.5 2.835-33.976 0-27.351-5.295-53.789-15.738-78.578-10.072-23.908-24.409-45.118-42.613-63.041-2.919-2.874-7.604-2.874-10.523 0-18.204 17.922-32.541 39.132-42.613 63.041-10.443 24.79-15.738 51.227-15.738 78.578 0 11.458.957 22.8 2.826 33.924zm7.688 30.711v-10.514c0-3.864 1.362-7.626 3.835-10.594l28.112-33.734c2.809 10.508 6.46 20.756 10.936 30.646zm66.235 21.376 4.266-17.064h36.385l4.266 17.064zm107.316-42.484c2.473 2.968 3.835 6.73 3.835 10.594v10.514l-42.883-24.197c4.475-9.89 8.127-20.137 10.936-30.646zm-84.858-211.807c12.595 13.539 22.983 29.063 30.878 45.872h-61.756c7.895-16.809 18.283-32.333 30.878-45.872zm-37.128 60.871h74.255c7.499 20.445 11.485 42.364 11.485 64.645 0 34.488-9.278 67.833-26.872 96.71h-43.481c-17.594-28.877-26.872-62.222-26.872-96.71 0-22.281 3.987-44.199 11.485-64.645z"/><path d="m287.548 151.79c0-17.396-14.152-31.548-31.548-31.548s-31.548 14.153-31.548 31.548 14.152 31.548 31.548 31.548 31.548-14.152 31.548-31.548zm-48.096 0c0-9.125 7.423-16.548 16.548-16.548s16.548 7.424 16.548 16.548-7.423 16.548-16.548 16.548-16.548-7.423-16.548-16.548z"/></g></g></svg>