<svg height="512" viewBox="0 0 74 74" width="512" xmlns="http://www.w3.org/2000/svg"><g id="color_line" data-name="color line"><path d="m22.884 49.252h28.232l-3.956 6.717h-20.32z" fill="#fcd462"/><path d="m49.504 71-2.344-15.031h-20.32l-2.344 15.031z" fill="#05afd6"/><path d="m37 18.192-14.116 31.06h28.232z" fill="#fcd462"/><path d="m51.12 49.25-3.96 6.72h-3.25l3.96-6.72z" fill="#f7be56"/><path d="m49.5 71h-25l.52-3.36h20.61l-1.82-11.67h3.35z" fill="#27a2db"/><path d="m51.12 49.25h-3.25l-12.49-27.49 1.62-3.57z" fill="#f7be56"/><path d="m37 36.1a.5.5 0 0 1 -.5-.5v-17.409a.5.5 0 0 1 1 0v17.409a.5.5 0 0 1 -.5.5z" fill="#323c6b"/><circle cx="37" cy="38.421" fill="#9297ab" r="2.819"/><path d="m37 41.74a3.319 3.319 0 1 1 3.318-3.319 3.322 3.322 0 0 1 -3.318 3.319zm0-5.64a2.319 2.319 0 1 0 2.318 2.318 2.321 2.321 0 0 0 -2.318-2.318z" fill="#323c6b"/><path d="m14.615 28.439a.5.5 0 0 1 -.434-.748c1.987-3.475 8.19-11.409 22.866-10 1.076.105 2.153.159 3.2.159 11.771 0 16.94-6.652 18.617-9.513a.5.5 0 0 1 .862.506c-1.763 3.009-7.191 10.007-19.479 10.007-1.081 0-2.19-.055-3.3-.164-14.1-1.347-20.011 6.193-21.9 9.5a.5.5 0 0 1 -.432.253z" fill="#323c6b"/><path d="m66.143 18.689h-58.286a.5.5 0 0 1 0-1h58.286a.5.5 0 0 1 0 1z" fill="#323c6b"/><path d="m1.867 15.195h5.99v5.99h-5.99z" fill="#e1e6e9"/><path d="m7.857 21.685h-5.99a.5.5 0 0 1 -.5-.5v-5.991a.5.5 0 0 1 .5-.5h5.99a.5.5 0 0 1 .5.5v5.991a.5.5 0 0 1 -.5.5zm-5.49-1h4.99v-4.991h-4.99z" fill="#323c6b"/><path d="m66.143 15.195h5.99v5.99h-5.99z" fill="#e1e6e9"/><g fill="#323c6b"><path d="m72.133 21.685h-5.99a.5.5 0 0 1 -.5-.5v-5.991a.5.5 0 0 1 .5-.5h5.99a.5.5 0 0 1 .5.5v5.991a.5.5 0 0 1 -.5.5zm-5.49-1h4.99v-4.991h-4.99z"/><path d="m51.318 63.667a.5.5 0 0 1 -.494-.423l-.883-5.667a.5.5 0 0 1 .988-.154l.883 5.667a.5.5 0 0 1 -.417.571.529.529 0 0 1 -.077.006z"/><path d="m51.734 66.333a.5.5 0 0 1 -.494-.423l-.078-.5a.5.5 0 1 1 .988-.153l.078.5a.5.5 0 0 1 -.417.571.518.518 0 0 1 -.077.005z"/><path d="m26.371 34.083a.5.5 0 0 1 -.451-.714l2.849-6a.5.5 0 0 1 .9.429l-2.849 6a.5.5 0 0 1 -.449.285z"/><path d="m30.169 26.083a.5.5 0 0 1 -.451-.714l.158-.333a.5.5 0 0 1 .9.429l-.158.333a.5.5 0 0 1 -.449.285z"/></g><circle cx="13.502" cy="30.168" fill="#fe7058" r="2.62"/><path d="m13.5 33.288a3.12 3.12 0 1 1 3.12-3.121 3.124 3.124 0 0 1 -3.12 3.121zm0-5.241a2.12 2.12 0 1 0 2.12 2.12 2.123 2.123 0 0 0 -2.12-2.12z" fill="#323c6b"/><circle cx="60.549" cy="6.37" fill="#fe7058" r="2.62"/><path d="m60.549 9.49a3.12 3.12 0 1 1 3.12-3.12 3.124 3.124 0 0 1 -3.12 3.12zm0-5.241a2.12 2.12 0 1 0 2.12 2.121 2.123 2.123 0 0 0 -2.12-2.12z" fill="#323c6b"/><path d="m47.161 56.469h-20.322a.5.5 0 0 1 -.431-.246l-3.955-6.717a.5.5 0 0 1 .431-.754h28.232a.5.5 0 0 1 .431.754l-3.955 6.717a.5.5 0 0 1 -.431.246zm-20.036-1h19.75l3.366-5.717h-26.482z" fill="#323c6b"/><path d="m49.5 71.5h-25a.5.5 0 0 1 -.5-.577l2.343-15.031a.5.5 0 0 1 .494-.423h20.324a.5.5 0 0 1 .494.423l2.345 15.031a.5.5 0 0 1 -.494.577zm-24.424-1h23.844l-2.188-14.031h-19.464z" fill="#323c6b"/><path d="m51.116 49.752h-28.232a.5.5 0 0 1 -.455-.707l14.116-31.061a.521.521 0 0 1 .91 0l14.116 31.061a.5.5 0 0 1 -.455.707zm-27.455-1h26.678l-13.339-29.352z" fill="#323c6b"/><circle cx="36.957" cy="18.287" fill="#fe7058" r="2.62"/><path d="m36.957 21.407a3.12 3.12 0 1 1 3.121-3.12 3.124 3.124 0 0 1 -3.121 3.12zm0-5.241a2.12 2.12 0 1 0 2.121 2.121 2.123 2.123 0 0 0 -2.121-2.12z" fill="#323c6b"/><path d="m35.17 46.93-6.775.011a.6.6 0 1 1 0-1.2l6.775-.011a.6.6 0 0 1 0 1.2z" fill="#fff"/><path d="m37.336 46.966h-.232a.6.6 0 1 1 0-1.2h.232a.6.6 0 0 1 0 1.2z" fill="#fff"/></g></svg>